<?xml version="1.0" encoding="UTF-8"?>
<svg version="1.1" xmlns="http://www.w3.org/2000/svg" width="512" height="512">
<path d="M0 0 C4.04084334 1.66806721 7.91455136 3.64154037 11.81030273 5.62133789 C12.98175339 6.20669815 14.15320404 6.79205841 15.3601532 7.39515686 C18.55839101 8.99356095 21.75032816 10.60418831 24.94124866 12.21713948 C28.28218827 13.9032785 31.628827 15.57802874 34.97486877 17.25401306 C41.30397393 20.42632382 47.62791318 23.60879293 53.95004469 26.79497474 C61.15045268 30.42315968 68.35656936 34.0399357 75.56317985 37.65578091 C90.38182668 45.09120843 105.19326553 52.54087767 120 60 C119.99555878 59.29256149 119.99111755 58.58512299 119.98654175 57.85624695 C119.9464752 51.19078621 119.91602081 44.52535905 119.89637566 37.85980511 C119.88593637 34.43293307 119.87177468 31.0061605 119.84912109 27.5793457 C119.82324314 23.64014881 119.81352838 19.70099226 119.8046875 15.76171875 C119.79436493 14.53039719 119.78404236 13.29907562 119.77340698 12.03044128 C119.77325592 10.88948502 119.77310486 9.74852875 119.77294922 8.57299805 C119.768508 7.567061 119.76406677 6.56112396 119.75949097 5.52470398 C120 3 120 3 122 0 C125.3125 -1 125.3125 -1 129 -1 C131.69947148 0.63520747 132.59179366 1.27780024 134 4 C134.70854671 8.61117777 134.5800953 13.17667374 134.48828125 17.83203125 C134.47894812 19.1925069 134.47183436 20.55299942 134.46684265 21.91349792 C134.44781131 25.48301117 134.3987468 29.05149653 134.34332275 32.62060547 C134.29204504 36.26711117 134.26931062 39.91378405 134.24414062 43.56054688 C134.19062213 50.7074501 134.10535818 57.85365771 134 65 C134.65083683 64.99631283 135.30167366 64.99262566 135.97223282 64.98882675 C151.80444959 64.90051084 167.63658075 64.83430764 183.4689827 64.79275131 C191.12540785 64.77212109 198.78166863 64.74399193 206.43798828 64.69824219 C213.11081353 64.65838823 219.78351976 64.63257052 226.45646071 64.62364602 C229.99018954 64.61842874 233.52357783 64.60615735 237.05719757 64.57707977 C241.00076202 64.54489169 244.94399252 64.54403967 248.88769531 64.54589844 C250.060858 64.53151733 251.23402069 64.51713623 252.44273376 64.50231934 C254.0538781 64.51056732 254.0538781 64.51056732 255.6975708 64.51898193 C256.6304253 64.51529476 257.5632798 64.51160759 258.52440262 64.50780869 C261.77879122 65.15483708 262.9711337 66.42497594 265 69 C265.5 72 265.5 72 265 75 C262.9711337 77.57502406 261.77879122 78.84516292 258.52440262 79.49219131 C257.59154812 79.48850414 256.65869362 79.48481697 255.6975708 79.48101807 C254.62347458 79.48651672 253.54937836 79.49201538 252.44273376 79.49768066 C251.26957108 79.48329956 250.09640839 79.46891846 248.88769531 79.45410156 C247.64840775 79.45468567 246.40912018 79.45526978 245.13227844 79.45587158 C241.73761338 79.45356279 238.34392219 79.43350847 234.94942951 79.40557575 C231.40070275 79.38056466 227.85196292 79.37822035 224.30316162 79.37347412 C217.58476079 79.36104342 210.86662042 79.32822076 204.14833426 79.28807616 C196.49908892 79.24336121 188.84983112 79.22137215 181.20048761 79.20129442 C165.46684091 79.15948802 149.73345405 79.0891344 134 79 C134.00999275 80.11087227 134.00999275 80.11087227 134.02018738 81.2441864 C134.08036633 88.23274794 134.1260089 95.22127061 134.15543652 102.21002483 C134.17107439 105.80280829 134.19227779 109.39537715 134.22631836 112.98803711 C134.25897965 116.45694391 134.27686714 119.92564464 134.28463173 123.39469337 C134.29285018 125.35838752 134.31625892 127.32199908 134.33988953 129.28556824 C134.34011612 130.4864357 134.34034271 131.68730316 134.34057617 132.92456055 C134.35056892 134.50674629 134.35056892 134.50674629 134.36076355 136.12089539 C133.94359786 139.45012212 132.9978037 141.3247899 131 144 C127.92431203 145.21408736 126.42250015 145.12482959 123.25 144.1875 C121 143 121 143 120 141 C119.9090785 139.1820546 119.88246533 137.36074055 119.88647461 135.54052734 C119.88655014 134.39949554 119.88662567 133.25846375 119.88670349 132.08285522 C119.89186478 130.84637238 119.89702606 129.60988953 119.90234375 128.3359375 C119.90446617 126.4424205 119.90446617 126.4424205 119.90663147 124.51065063 C119.91128922 121.15361701 119.92027592 117.796651 119.93133545 114.43963623 C119.9415623 111.01445094 119.94613182 107.58925866 119.95117188 104.1640625 C119.96221762 97.44268957 119.97896806 90.72134869 120 84 C119.38708288 84.30830215 118.77416576 84.61660429 118.1426754 84.93424892 C103.22395825 92.43778965 88.30081723 99.93244948 73.37270164 107.41727352 C66.15366499 111.03710135 58.93615412 114.6599109 51.72216797 118.28979492 C45.43394478 121.45385036 39.1429227 124.61225746 32.84848559 127.7639342 C29.5161998 129.43268278 26.18537672 131.10421208 22.85789108 132.78251457 C19.14186601 134.65665453 15.41964698 136.51815555 11.69677734 138.37866211 C10.59626038 138.93611115 9.49574341 139.49356018 8.36187744 140.06790161 C7.34393097 140.57412552 6.3259845 141.08034943 5.27719116 141.60191345 C4.39780066 142.04345229 3.51841015 142.48499113 2.61237144 142.93990993 C-0.29478474 144.11962249 -2.87784341 144.70589372 -6 145 C-10.56521739 142.86956522 -10.56521739 142.86956522 -12 140 C-12.09128293 138.05955723 -12.11752248 136.1159244 -12.11352539 134.17333984 C-12.11344986 132.95222504 -12.11337433 131.73111023 -12.11329651 130.47299194 C-12.10818952 129.13564005 -12.10297352 127.79828857 -12.09765625 126.4609375 C-12.0957914 125.09616141 -12.09436781 123.73138466 -12.09336853 122.36660767 C-12.08954863 118.77284907 -12.07972283 115.17913083 -12.06866455 111.58538818 C-12.05843911 107.91891018 -12.05386848 104.25242565 -12.04882812 100.5859375 C-12.0381001 93.39060659 -12.02102999 86.19530895 -12 79 C-12.65083683 79.00368717 -13.30167366 79.00737434 -13.97223282 79.01117325 C-29.80444959 79.09948916 -45.63658075 79.16569236 -61.4689827 79.20724869 C-69.12540785 79.22787891 -76.78166863 79.25600807 -84.43798828 79.30175781 C-91.11081353 79.34161177 -97.78351976 79.36742948 -104.45646071 79.37635398 C-107.99018954 79.38157126 -111.52357783 79.39384265 -115.05719757 79.42292023 C-119.00076202 79.45510831 -122.94399252 79.45596033 -126.88769531 79.45410156 C-128.060858 79.46848267 -129.23402069 79.48286377 -130.44273376 79.49768066 C-132.0538781 79.48943268 -132.0538781 79.48943268 -133.6975708 79.48101807 C-134.6304253 79.48470524 -135.5632798 79.48839241 -136.52440262 79.49219131 C-139.77879122 78.84516292 -140.9711337 77.57502406 -143 75 C-143.5 72 -143.5 72 -143 69 C-140.9711337 66.42497594 -139.77879122 65.15483708 -136.52440262 64.50780869 C-135.59154812 64.51149586 -134.65869362 64.51518303 -133.6975708 64.51898193 C-132.62347458 64.51348328 -131.54937836 64.50798462 -130.44273376 64.50231934 C-129.26957108 64.51670044 -128.09640839 64.53108154 -126.88769531 64.54589844 C-125.64840775 64.54531433 -124.40912018 64.54473022 -123.13227844 64.54412842 C-119.73761338 64.54643721 -116.34392219 64.56649153 -112.94942951 64.59442425 C-109.40070275 64.61943534 -105.85196292 64.62177965 -102.30316162 64.62652588 C-95.58476079 64.63895658 -88.86662042 64.67177924 -82.14833426 64.71192384 C-74.49908892 64.75663879 -66.84983112 64.77862785 -59.20048761 64.79870558 C-43.46684091 64.84051198 -27.73345405 64.9108656 -12 65 C-12.00999275 63.88912773 -12.00999275 63.88912773 -12.02018738 62.7558136 C-12.08036633 55.76725206 -12.1260089 48.77872939 -12.15543652 41.78997517 C-12.17107439 38.19719171 -12.19227779 34.60462285 -12.22631836 31.01196289 C-12.25897965 27.54305609 -12.27686714 24.07435536 -12.28463173 20.60530663 C-12.29285018 18.64161248 -12.31625892 16.67800092 -12.33988953 14.71443176 C-12.34022942 12.91313057 -12.34022942 12.91313057 -12.34057617 11.07543945 C-12.35056892 9.49325371 -12.35056892 9.49325371 -12.36076355 7.87910461 C-11.94455387 4.55750738 -10.97087251 2.68251761 -9 0 C-5.88856156 -1.55571922 -3.23426872 -0.87876289 0 0 Z M2 18 C2 53.64 2 89.28 2 126 C5.85829535 124.71390155 9.04715889 123.60105369 12.59384155 121.82333374 C13.46033325 121.39146255 14.32682495 120.95959137 15.21957397 120.51463318 C16.15177765 120.04493607 17.08398132 119.57523895 18.04443359 119.09130859 C19.04017395 118.59358444 20.03591431 118.09586029 21.06182861 117.58305359 C24.34260947 115.94196819 27.62052251 114.29523871 30.8984375 112.6484375 C33.17655253 111.50751433 35.45484479 110.36694499 37.73330688 109.22671509 C43.11073518 106.53457688 48.48636694 103.83888473 53.86113894 101.14144957 C59.98291144 98.06936731 66.10696925 95.00185405 72.23121905 91.93471408 C84.82335415 85.62820754 97.41262221 79.31599584 110 73 C110 72.34 110 71.68 110 71 C96.21628696 64.08480675 82.43029867 57.17416634 68.64157295 50.2689743 C62.23961351 47.06283328 55.83841321 43.85519356 49.43896484 40.64404297 C43.86269413 37.84595574 38.28503367 35.0506622 32.70567024 32.25874662 C29.75015165 30.77968108 26.79557089 29.29879008 23.84222794 27.81538391 C20.54916113 26.16163714 17.25366206 24.51284022 13.95751953 22.86523438 C12.9735318 22.36964523 11.98954407 21.87405609 10.97573853 21.3634491 C10.08108887 20.91749893 9.18643921 20.47154877 8.26467896 20.01208496 C7.48484209 19.62124474 6.70500523 19.23040451 5.90153694 18.82772064 C4.04001285 17.8669608 4.04001285 17.8669608 2 18 Z " fill="#000000" transform="translate(195,184)"/>
</svg>
