<svg xmlns="http://www.w3.org/2000/svg" fill="white" fill-rule="evenodd" stroke-linejoin="round" stroke-miterlimit="2" clip-rule="evenodd" viewBox="0 0 100 100" id="web-design"><path d="M17,92l66,-0c4.967,-0 9,-4.033 9,-9l0,-66c0,-4.967 -4.033,-9 -9,-9l-66,-0c-4.967,-0 -9,4.033 -9,9c0,0 0,66 0,66c0,4.967 4.033,9 9,9Zm9,-6l-9,-0c-1.656,-0 -3,-1.344 -3,-3l0,-51l12,-0l0,54Zm6,-12l0,12l24,-0l0,-12l-24,-0Zm54,-0l0,9c0,1.656 -1.344,3 -3,3l-21,-0l0,-12l24,-0Zm-54,-42l0,36l54,-0l0,-36l-54,-0Zm9,27l36,-0c1.656,-0 3,-1.344 3,-3c-0,-1.656 -1.344,-3 -3,-3l-36,-0c-1.656,-0 -3,1.344 -3,3c-0,1.656 1.344,3 3,3Zm-0,-12l36,-0c1.656,-0 3,-1.344 3,-3c-0,-1.656 -1.344,-3 -3,-3l-36,-0c-1.656,-0 -3,1.344 -3,3c-0,1.656 1.344,3 3,3Zm45,-21l-72,-0l0,-9c0,-1.656 1.344,-3 3,-3c0,-0 66,-0 66,-0c1.656,-0 3,1.344 3,3l0,9Zm-6,-9c-1.656,-0 -3,1.344 -3,3c0,1.656 1.344,3 3,3c1.656,-0 3,-1.344 3,-3c0,-1.656 -1.344,-3 -3,-3Zm-9,-0c-1.656,-0 -3,1.344 -3,3c0,1.656 1.344,3 3,3c1.656,-0 3,-1.344 3,-3c0,-1.656 -1.344,-3 -3,-3Zm-9,-0c-1.656,-0 -3,1.344 -3,3c0,1.656 1.344,3 3,3c1.656,-0 3,-1.344 3,-3c0,-1.656 -1.344,-3 -3,-3Z"></path></svg>